<svg xmlns="http://www.w3.org/2000/svg" viewBox="0 0 24 24" width="24" height="24">
  <path fill="currentColor" d="M22.11 13.56l-1.97-.59c-.17-.57-.31-1.14-.44-1.73l1.27-1.27c.23-.23.23-.62 0-.85l-1.77-1.77c-.23-.23-.62-.23-.85 0L17.2 8.21c-.59-.13-1.16-.27-1.73-.44l-.59-1.97c-.08-.27-.31-.46-.58-.46h-2.6c-.27 0-.5.19-.58.46l-.59 1.97c-.57.17-1.14.31-1.73.44l-1.27-1.27c-.23-.23-.62-.23-.85 0L4.56 7.22c-.23.23-.23.62 0 .85l1.77 1.77c.23.23.23.62 0 .85L4.75 11.7c.13.59.27 1.16.44 1.73l1.97.59c.17.57.31 1.14.44 1.73l-1.27 1.27c-.23.23-.23.62 0 .85l1.77 1.77c.23.23.62.23.85 0l1.77-1.77c.59.13 1.16.27 1.73.44l.59 1.97c.08.27.31.46.58.46h2.6c.27 0 .5-.19.58-.46l.59-1.97c.57-.17 1.14-.31 1.73-.44l1.27 1.27c.23.23.62.23.85 0l1.77-1.77c.23-.23.23-.62 0-.85l-1.77-1.77c-.13-.59-.27-1.16-.44-1.73zm-9.11 1.94c-2.02 0-3.66-1.64-3.66-3.66s1.64-3.66 3.66-3.66 3.66 1.64 3.66 3.66-1.64 3.66-3.66 3.66z"/>
</svg>
